ModelForces
version=1
nRows=4
nColumns=206
inDegrees=no

This file contains the forces exerted on a model during a simulation.

A force is a generalized force, meaning that it can be either a force (N) or a torque (Nm).

Units are S.I. units (second, meters, Newtons, ...)
Angles are in degrees.

endheader
time	glut_med1_r	glut_med2_r	glut_med3_r	glut_min1_r	glut_min2_r	glut_min3_r	semimem_r	semiten_r	bifemlh_r	bifemsh_r	sar_r	add_long_r	add_brev_r	add_mag1_r	add_mag2_r	add_mag3_r	tfl_r	pect_r	grac_r	glut_max1_r	glut_max2_r	glut_max3_r	iliacus_r	psoas_r	quad_fem_r	gem_r	peri_r	rect_fem_r	vas_med_r	vas_int_r	vas_lat_r	med_gas_r	lat_gas_r	soleus_r	tib_post_r	flex_dig_r	flex_hal_r	tib_ant_r	per_brev_r	per_long_r	per_tert_r	ext_dig_r	ext_hal_r	glut_med1_l	glut_med2_l	glut_med3_l	glut_min1_l	glut_min2_l	glut_min3_l	semimem_l	semiten_l	bifemlh_l	bifemsh_l	sar_l	add_long_l	add_brev_l	add_mag1_l	add_mag2_l	add_mag3_l	tfl_l	pect_l	grac_l	glut_max1_l	glut_max2_l	glut_max3_l	iliacus_l	psoas_l	quad_fem_l	gem_l	peri_l	rect_fem_l	vas_med_l	vas_int_l	vas_lat_l	med_gas_l	lat_gas_l	soleus_l	tib_post_l	flex_dig_l	flex_hal_l	tib_ant_l	per_brev_l	per_long_l	per_tert_l	ext_dig_l	ext_hal_l	ercspn_r	ercspn_l	intobl_r	intobl_l	extobl_r	extobl_l	femur_lat_meniscii_l.femur_lat_l.force.X	femur_lat_meniscii_l.femur_lat_l.force.Y	femur_lat_meniscii_l.femur_lat_l.force.Z	femur_lat_meniscii_l.femur_lat_l.torque.X	femur_lat_meniscii_l.femur_lat_l.torque.Y	femur_lat_meniscii_l.femur_lat_l.torque.Z	femur_lat_meniscii_l.meniscus_lat_l.force.X	femur_lat_meniscii_l.meniscus_lat_l.force.Y	femur_lat_meniscii_l.meniscus_lat_l.force.Z	femur_lat_meniscii_l.meniscus_lat_l.torque.X	femur_lat_meniscii_l.meniscus_lat_l.torque.Y	femur_lat_meniscii_l.meniscus_lat_l.torque.Z	femur_med_meniscii_l.femur_med_l.force.X	femur_med_meniscii_l.femur_med_l.force.Y	femur_med_meniscii_l.femur_med_l.force.Z	femur_med_meniscii_l.femur_med_l.torque.X	femur_med_meniscii_l.femur_med_l.torque.Y	femur_med_meniscii_l.femur_med_l.torque.Z	femur_med_meniscii_l.meniscus_med_l.force.X	femur_med_meniscii_l.meniscus_med_l.force.Y	femur_med_meniscii_l.meniscus_med_l.force.Z	femur_med_meniscii_l.meniscus_med_l.torque.X	femur_med_meniscii_l.meniscus_med_l.torque.Y	femur_med_meniscii_l.meniscus_med_l.torque.Z	femur_lat_meniscii_r.femur_lat_r.force.X	femur_lat_meniscii_r.femur_lat_r.force.Y	femur_lat_meniscii_r.femur_lat_r.force.Z	femur_lat_meniscii_r.femur_lat_r.torque.X	femur_lat_meniscii_r.femur_lat_r.torque.Y	femur_lat_meniscii_r.femur_lat_r.torque.Z	femur_lat_meniscii_r.meniscus_lat_r.force.X	femur_lat_meniscii_r.meniscus_lat_r.force.Y	femur_lat_meniscii_r.meniscus_lat_r.force.Z	femur_lat_meniscii_r.meniscus_lat_r.torque.X	femur_lat_meniscii_r.meniscus_lat_r.torque.Y	femur_lat_meniscii_r.meniscus_lat_r.torque.Z	femur_med_meniscii_r.femur_med_r.force.X	femur_med_meniscii_r.femur_med_r.force.Y	femur_med_meniscii_r.femur_med_r.force.Z	femur_med_meniscii_r.femur_med_r.torque.X	femur_med_meniscii_r.femur_med_r.torque.Y	femur_med_meniscii_r.femur_med_r.torque.Z	femur_med_meniscii_r.meniscus_med_r.force.X	femur_med_meniscii_r.meniscus_med_r.force.Y	femur_med_meniscii_r.meniscus_med_r.force.Z	femur_med_meniscii_r.meniscus_med_r.torque.X	femur_med_meniscii_r.meniscus_med_r.torque.Y	femur_med_meniscii_r.meniscus_med_r.torque.Z	femur_med_tibia_l.tibia_upper_l.force.X	femur_med_tibia_l.tibia_upper_l.force.Y	femur_med_tibia_l.tibia_upper_l.force.Z	femur_med_tibia_l.tibia_upper_l.torque.X	femur_med_tibia_l.tibia_upper_l.torque.Y	femur_med_tibia_l.tibia_upper_l.torque.Z	femur_med_tibia_l.femur_med_l.force.X	femur_med_tibia_l.femur_med_l.force.Y	femur_med_tibia_l.femur_med_l.force.Z	femur_med_tibia_l.femur_med_l.torque.X	femur_med_tibia_l.femur_med_l.torque.Y	femur_med_tibia_l.femur_med_l.torque.Z	femur_lat_tibia_l.tibia_upper_l.force.X	femur_lat_tibia_l.tibia_upper_l.force.Y	femur_lat_tibia_l.tibia_upper_l.force.Z	femur_lat_tibia_l.tibia_upper_l.torque.X	femur_lat_tibia_l.tibia_upper_l.torque.Y	femur_lat_tibia_l.tibia_upper_l.torque.Z	femur_lat_tibia_l.femur_lat_l.force.X	femur_lat_tibia_l.femur_lat_l.force.Y	femur_lat_tibia_l.femur_lat_l.force.Z	femur_lat_tibia_l.femur_lat_l.torque.X	femur_lat_tibia_l.femur_lat_l.torque.Y	femur_lat_tibia_l.femur_lat_l.torque.Z	femur_med_tibia_r.tibia_upper_r.force.X	femur_med_tibia_r.tibia_upper_r.force.Y	femur_med_tibia_r.tibia_upper_r.force.Z	femur_med_tibia_r.tibia_upper_r.torque.X	femur_med_tibia_r.tibia_upper_r.torque.Y	femur_med_tibia_r.tibia_upper_r.torque.Z	femur_med_tibia_r.femur_med_r.force.X	femur_med_tibia_r.femur_med_r.force.Y	femur_med_tibia_r.femur_med_r.force.Z	femur_med_tibia_r.femur_med_r.torque.X	femur_med_tibia_r.femur_med_r.torque.Y	femur_med_tibia_r.femur_med_r.torque.Z	femur_lat_tibia_r.tibia_upper_r.force.X	femur_lat_tibia_r.tibia_upper_r.force.Y	femur_lat_tibia_r.tibia_upper_r.force.Z	femur_lat_tibia_r.tibia_upper_r.torque.X	femur_lat_tibia_r.tibia_upper_r.torque.Y	femur_lat_tibia_r.tibia_upper_r.torque.Z	femur_lat_tibia_r.femur_lat_r.force.X	femur_lat_tibia_r.femur_lat_r.force.Y	femur_lat_tibia_r.femur_lat_r.force.Z	femur_lat_tibia_r.femur_lat_r.torque.X	femur_lat_tibia_r.femur_lat_r.torque.Y	femur_lat_tibia_r.femur_lat_r.torque.Z	aACL_R	pACL_R	aPCL_R	pPCL_R	aMCL_R	mMCL_R	pMCL_R	aLCL_R	mLCL_R	pLCL_R	aPCL_L	pPCL_L	aMCL_L	aLCL_L	ground_prescribedForce_-90_fx	ground_prescribedForce_-90_fy	ground_prescribedForce_-90_fz
      0.37275775	      7.80587692	      5.84331775	      6.25718166	      2.73867712	      3.26523270	      3.30161452	      0.00000000	      3.29076928	      3.75334960	      5.36683496	      1.52757386	      5.79128814	      4.26410713	      3.00972841	      2.53190521	      4.12835386	      2.84095729	      2.30628698	      1.41871831	      3.77057404	      5.73054168	      4.28012771	     22.96969562	     13.32934023	      3.73784291	      2.90642492	      4.29434855	    246.21842755	     44.23177615	     87.54376927	     63.93667019	      0.00000000	      0.00000000	     14.09363033	     14.46347450	      2.85235249	      2.20405660	     12.56256752	      3.28153987	      7.89663730	      7.17467493	      6.92131883	      2.25782660	      7.80587692	      5.84331775	      6.25718166	      2.73867712	      3.26523270	      3.30161452	      9.11994664	      4.22141209	      7.99508637	      7.43735378	      1.56510907	      5.79128814	      4.26410713	      3.00972841	      2.53190521	      4.12835386	      4.18419868	      2.30628698	      1.60605141	      3.77057404	      5.73054168	      4.28012771	     22.96969562	     13.32934023	      3.73784291	      2.90642492	      4.29434855	     11.09226672	      6.80413837	      7.80964554	      8.39613476	     14.83206912	      6.88745640	     32.63720213	     42.97034197	      2.93341836	      3.07771771	      8.77191042	      4.52507693	     12.89756620	      2.06209707	      5.48739039	      1.73912945	     25.75827141	     25.75827141	      9.29514232	      9.29514232	     27.06973068	     27.06973068	      2.76307435	     50.99597937	     -9.56042239	      5.21997485	     -0.02578839	      1.48581788	     -2.76307435	    -50.99597937	      9.56042239	     -1.74637766	      0.02558040	     -0.48301696	     -3.31599387	     20.97615968	     -3.40468921	      0.94473225	     -0.02138609	     -1.00501789	      3.31599387	    -20.97615968	      3.40468921	      0.28075727	      0.00368718	     -0.29758878	    216.48056065	     -0.93374633	     37.86600711	    -15.27235404	      5.30259372	     87.98096100	   -216.48056065	      0.93374633	    -37.86600711	      0.06325254	     -7.22641319	     -1.07772743	     80.23353743	    -55.81920090	    -12.40817484	      3.95670619	     -1.53028155	     32.34068690	    -80.23353743	     55.81920090	     12.40817484	      0.81008505	      1.57614367	     -1.72405378	      0.00000000	      0.00000000	      0.00000000	      0.00000000	      0.00000000	      0.00000000	      0.00000000	      0.00000000	      0.00000000	      0.00000000	      0.00000000	      0.00000000	      0.00000000	      0.00000000	      0.00000000	      0.00000000	      0.00000000	      0.00000000	      0.00000000	      0.00000000	      0.00000000	      0.00000000	      0.00000000	      0.00000000	   -513.82108969	     22.48763269	    102.67358140	     -0.05780584	      9.85847337	     -2.38913698	    513.82108969	    -22.48763269	   -102.67358140	     41.20050059	     -8.89863180	    208.07398208	    -43.89504603	     -6.99503490	    -12.57965618	      0.25868788	     -1.61431161	     -0.00501730	     43.89504603	      6.99503490	     12.57965618	     -5.28313197	      1.08354909	     17.83228569	     35.33142840	     11.96153174	    779.69875388	    368.37238421	     10.64220801	      1.00366823	      0.00000000	      0.00000000	      0.00000000	      0.00000000	      0.00000000	      0.00000000	      0.00000001	      0.00000000	      0.00000000	   -110.00000000	      0.00000000
      0.37453433	      7.79997227	      5.83925657	      6.25277877	      2.73685451	      3.26325954	      3.29912229	      0.00000000	      3.28837969	      3.75086733	      5.36336972	      1.52608077	      5.78721601	      4.26129515	      3.00765158	      2.53011635	      4.12512725	      2.83800317	      2.30474229	      1.41782604	      3.76795478	      5.72654892	      4.27709111	     22.96232476	     13.32103633	      3.73530109	      2.90523115	      4.28976020	    246.23606267	     44.22528017	     87.54137342	     63.93237785	      0.00000000	      0.00000000	     14.02479714	     14.52308607	      2.86447184	      2.24646414	     12.55796537	      3.28441514	      7.84714172	      7.18964779	      6.86003093	      2.23253006	      7.79997227	      5.83925657	      6.25277877	      2.73685451	      3.26325954	      3.29912229	      9.11140149	      4.21824916	      7.98795323	      7.43229293	      1.56407224	      5.78721601	      4.26129515	      3.00765158	      2.53011635	      4.12512725	      4.18220117	      2.30474229	      1.60496894	      3.76795478	      5.72654892	      4.27709111	     22.96232476	     13.32103633	      3.73530109	      2.90523115	      4.28976020	     11.08255011	      6.79929875	      7.80398384	      8.39007725	     14.81317226	      6.87867137	     32.60235516	     42.95649321	      2.92944564	      3.07423914	      8.76458574	      4.52073072	     12.88757080	      2.06080997	      5.48230011	      1.73763898	     25.74108995	     25.74108995	      9.28839168	      9.28839168	     27.06366630	     27.06366630	      2.76307435	     50.99597937	     -9.56042239	      5.21997485	     -0.02578839	      1.48581788	     -2.76307435	    -50.99597937	      9.56042239	     -1.74637766	      0.02558040	     -0.48301696	     -3.31599387	     20.97615968	     -3.40468921	      0.94473225	     -0.02138609	     -1.00501789	      3.31599387	    -20.97615968	      3.40468921	      0.28075727	      0.00368718	     -0.29758878	    216.80470204	     -1.04007623	     37.00894180	    -14.92145211	      5.29936020	     88.11469333	   -216.80470204	      1.04007623	    -37.00894180	      0.05603133	     -7.20079729	     -1.08395620	     80.14111627	    -55.86154343	    -12.83036204	      4.12399089	     -1.53221024	     32.30437978	    -80.14111627	     55.86154343	     12.83036204	      0.81194732	      1.59019505	     -1.72593813	      0.00000000	      0.00000000	      0.00000000	      0.00000000	      0.00000000	      0.00000000	      0.00000000	      0.00000000	      0.00000000	      0.00000000	      0.00000000	      0.00000000	      0.00000000	      0.00000000	      0.00000000	      0.00000000	      0.00000000	      0.00000000	      0.00000000	      0.00000000	      0.00000000	      0.00000000	      0.00000000	      0.00000000	   -512.53992885	     22.63949899	    104.03792023	     -0.05945606	      9.89661994	     -2.39075665	    512.53992885	    -22.63949899	   -104.03792023	     41.74951688	     -8.89491147	    207.55770518	    -44.49033586	     -7.06982174	    -12.59853196	      0.26070284	     -1.63011386	     -0.00590452	     44.49033586	      7.06982174	     12.59853196	     -5.29242918	      1.09630964	     18.07444588	     35.51719977	     12.15944399	    779.45645754	    368.11215778	     10.63012009	      0.95819583	      0.00000000	      0.00000000	      0.00000000	      0.00000000	      0.00000000	      0.00000000	      0.00000001	      0.00000000	      0.00000000	   -110.00000000	      0.00000000
      0.37631091	      7.79420189	      5.83528759	      6.24847587	      2.73507321	      3.26133115	      3.29668673	      0.00000000	      3.28644895	      3.74815859	      5.36188724	      1.52576982	      5.78323636	      4.25854691	      3.00562190	      2.52836813	      4.12197405	      2.83590665	      2.30323262	      1.41709295	      3.76539501	      5.72264684	      4.27412349	     22.95512140	     13.31292151	      3.73281692	      2.90406456	      4.28527305	    246.27040422	     44.23287461	     87.56781039	     63.95178933	      0.00000000	      0.00000000	     13.95481898	     14.56996664	      2.87630602	      2.28915479	     12.55099360	      3.29088198	      7.80290591	      7.20714971	      6.79780066	      2.20612861	      7.79420189	      5.83528759	      6.24847587	      2.73507321	      3.26133115	      3.29668673	      9.10304927	      4.21515814	      7.98098170	      7.42734690	      1.56305891	      5.78323636	      4.25854691	      3.00562190	      2.52836813	      4.12197405	      4.18024915	      2.30323262	      1.60391103	      3.76539501	      5.72264684	      4.27412349	     22.95512140	     13.31292151	      3.73281692	      2.90406456	      4.28527305	     11.07305385	      6.79456914	      7.79845091	      8.38415751	     14.79466955	      6.87006955	     32.56827779	     42.94295478	      2.92554009	      3.07082924	      8.75742749	      4.51648227	     12.87779238	      2.05955215	      5.47733838	      1.73618596	     25.72429803	     25.72429803	      9.28179444	      9.28179444	     27.05773975	     27.05773975	      2.76307435	     50.99597937	     -9.56042239	      5.21997485	     -0.02578839	      1.48581788	     -2.76307435	    -50.99597937	      9.56042239	     -1.74637766	      0.02558040	     -0.48301696	     -3.31599387	     20.97615968	     -3.40468921	      0.94473225	     -0.02138609	     -1.00501789	      3.31599387	    -20.97615968	      3.40468921	      0.28075727	      0.00368718	     -0.29758878	    216.95112848	     -0.94120999	     37.84869450	    -15.26480951	      5.31384821	     88.17393945	   -216.95112848	      0.94120999	    -37.84869450	      0.06248227	     -7.24109939	     -1.08115738	     80.11512207	    -55.82441035	    -12.42564765	      3.96433705	     -1.52773378	     32.29371041	    -80.11512207	     55.82441035	     12.42564765	      0.80895604	      1.57378286	     -1.72449532	      0.00000000	      0.00000000	      0.00000000	      0.00000000	      0.00000000	      0.00000000	      0.00000000	      0.00000000	      0.00000000	      0.00000000	      0.00000000	      0.00000000	      0.00000000	      0.00000000	      0.00000000	      0.00000000	      0.00000000	      0.00000000	      0.00000000	      0.00000000	      0.00000000	      0.00000000	      0.00000000	      0.00000000	   -511.93849310	     22.41818769	    102.26687322	     -0.05677255	      9.81436268	     -2.37995290	    511.93849310	    -22.41818769	   -102.26687322	     41.03657874	     -8.86384387	    207.31270056	    -44.93950942	     -7.17541758	    -12.87152763	      0.26522450	     -1.65298425	     -0.00450509	     44.93950942	      7.17541758	     12.87152763	     -5.40615322	      1.10936836	     18.25653333	     35.40909323	     11.99947599	    779.28374472	    368.09760362	     10.67547458	      1.00573648	      0.00000000	      0.00000000	      0.00000000	      0.00000000	      0.00000000	      0.00000000	      0.00000001	      0.00000000	      0.00000000	   -110.00000000	      0.00000000
      0.37808750	      7.78856272	      5.83140869	      6.24427068	      2.73333230	      3.25944652	      3.29430654	      0.00000000	      3.28397737	      3.74543026	      5.35712959	      1.52400771	      5.77934707	      4.25586094	      3.00363829	      2.52665962	      4.11889258	      2.83338804	      2.30175719	      1.41600778	      3.76289336	      5.71883336	      4.27122329	     22.94808172	     13.30499146	      3.73038911	      2.90292453	      4.28088488	    246.28016331	     44.22084199	     87.55490486	     63.93799700	      0.00000000	      0.00000000	     13.88133679	     14.60809631	      2.88834688	      2.33248423	     12.54599973	      3.29784787	      7.76083651	      7.22357290	      6.73446636	      2.17896508	      7.78856272	      5.83140869	      6.24427068	      2.73333230	      3.25944652	      3.29430654	      9.09488562	      4.21213740	      7.97416809	      7.42251307	      1.56206855	      5.77934707	      4.25586094	      3.00363829	      2.52665962	      4.11889258	      4.17834156	      2.30175719	      1.60287710	      3.76289336	      5.71883336	      4.27122329	     22.94808172	     13.30499146	      3.73038911	      2.90292453	      4.28088488	     11.06377292	      6.78994703	      7.79304379	      8.37837241	     14.77655293	      6.86164718	     32.53495323	     42.92971972	      2.92170104	      3.06748702	      8.75043189	      4.51232938	     12.86822629	      2.05832294	      5.47250123	      1.73476918	     25.70788680	     25.70788680	      9.27534709	      9.27534709	     27.05194788	     27.05194788	      2.76307435	     50.99597937	     -9.56042239	      5.21997485	     -0.02578839	      1.48581788	     -2.76307435	    -50.99597937	      9.56042239	     -1.74637766	      0.02558040	     -0.48301696	     -3.31599387	     20.97615968	     -3.40468921	      0.94473225	     -0.02138609	     -1.00501789	      3.31599387	    -20.97615968	      3.40468921	      0.28075727	      0.00368718	     -0.29758878	    217.26665164	     -1.02199994	     36.91974891	    -14.88525901	      5.30948798	     88.30381804	   -217.26665164	      1.02199994	    -36.91974891	      0.05557981	     -7.21222936	     -1.08626545	     80.02184286	    -55.84364410	    -12.89352705	      4.15007794	     -1.53002478	     32.25688233	    -80.02184286	     55.84364410	     12.89352705	      0.81080969	      1.58952457	     -1.72554025	      0.00000000	      0.00000000	      0.00000000	      0.00000000	      0.00000000	      0.00000000	      0.00000000	      0.00000000	      0.00000000	      0.00000000	      0.00000000	      0.00000000	      0.00000000	      0.00000000	      0.00000000	      0.00000000	      0.00000000	      0.00000000	      0.00000000	      0.00000000	      0.00000000	      0.00000000	      0.00000000	      0.00000000	   -510.58422704	     22.54411396	    103.83171012	     -0.05974563	      9.86009166	     -2.38000891	    510.58422704	    -22.54411396	   -103.83171012	     41.66753492	     -8.86157280	    206.76622377	    -45.49343480	     -7.26482412	    -12.89398388	      0.26762924	     -1.66790586	     -0.00450331	     45.49343480	      7.26482412	     12.89398388	     -5.41722105	      1.12130346	     18.48161574	     35.59853704	     12.20650991	    779.05207019	    367.83759214	     10.64213684	      0.94024750	      0.00000000	      0.00000000	      0.00000000	      0.00000000	      0.00000000	      0.00000000	      0.00000001	      0.00000000	      0.00000000	   -110.00000000	      0.00000000
